<?xml version="1.0" encoding="utf-8"?>
<!-- Generator: Adobe Illustrator 15.0.0, SVG Export Plug-In . SVG Version: 6.00 Build 0)  -->
<!DOCTYPE svg PUBLIC "-//W3C//DTD SVG 1.1//EN" "http://www.w3.org/Graphics/SVG/1.1/DTD/svg11.dtd">
<svg version="1.1" id="图层_1" xmlns:sketch="http://www.bohemiancoding.com/sketch/ns"
	 xmlns="http://www.w3.org/2000/svg" xmlns:xlink="http://www.w3.org/1999/xlink" x="0px" y="0px" width="20px" height="16px"
	 viewBox="0 0 20 16" enable-background="new 0 0 20 16" xml:space="preserve">
<title>folder-shared</title>
<desc>Created with Sketch.</desc>
<g id="Page-1" sketch:type="MSPage">
	<g id="Core" transform="translate(-128.000000, -256.000000)" sketch:type="MSLayerGroup">
		<g id="folder-shared" transform="translate(128.000000, 256.000000)" sketch:type="MSShapeGroup">
			<path id="Shape" fill="#FFFFFF" d="M18,2h-8L8,0H2C0.9,0,0,0.9,0,2v12c0,1.1,0.9,2,2,2h16c1.1,0,2-0.9,2-2V4C20,2.9,19.1,2,18,2
				L18,2z M13,5c1.1,0,2,0.9,2,2s-0.9,2-2,2s-2-0.9-2-2S11.9,5,13,5L13,5z M17,13H9v-1c0-1.3,2.7-2,4-2s4,0.7,4,2V13L17,13z"/>
		</g>
	</g>
</g>
</svg>
