<?xml version="1.0" encoding="utf-8"?>
<!-- Generator: Adobe Illustrator 15.0.0, SVG Export Plug-In . SVG Version: 6.00 Build 0)  -->
<!DOCTYPE svg PUBLIC "-//W3C//DTD SVG 1.1//EN" "http://www.w3.org/Graphics/SVG/1.1/DTD/svg11.dtd">
<svg version="1.1" id="图层_1" xmlns:sketch="http://www.bohemiancoding.com/sketch/ns"
	 xmlns="http://www.w3.org/2000/svg" xmlns:xlink="http://www.w3.org/1999/xlink" x="0px" y="0px" width="20px" height="20px"
	 viewBox="0 0 20 20" enable-background="new 0 0 20 20" xml:space="preserve">
<title>communities</title>
<desc>Created with Sketch.</desc>
<g id="Page-1" sketch:type="MSPage">
	<g id="Icons-Social" transform="translate(-169.000000, -1.000000)" sketch:type="MSLayerGroup">
		<g id="communities" transform="translate(169.000000, 1.000000)" sketch:type="MSShapeGroup">
			<path id="Shape" fill="#FFFFFF" d="M7,10c-1.1,0-2,0.9-2,2s0.9,2,2,2s2-0.9,2-2S8.1,10,7,10L7,10z M12,7c0-1.1-0.9-2-2-2
				C8.9,5,8,5.9,8,7s0.9,2,2,2C11.1,9,12,8.1,12,7L12,7z M10,0C4.5,0,0,4.5,0,10s4.5,10,10,10s10-4.5,10-10S15.5,0,10,0L10,0z
				 M10,18c-4.4,0-8-3.6-8-8c0-4.4,3.6-8,8-8c4.4,0,8,3.6,8,8C18,14.4,14.4,18,10,18L10,18z M13,10c-1.1,0-2,0.9-2,2s0.9,2,2,2
				s2-0.9,2-2S14.1,10,13,10L13,10z"/>
		</g>
	</g>
</g>
</svg>
