<?xml version="1.0" encoding="utf-8"?>
<!-- Generator: Adobe Illustrator 15.0.0, SVG Export Plug-In . SVG Version: 6.00 Build 0)  -->
<!DOCTYPE svg PUBLIC "-//W3C//DTD SVG 1.1//EN" "http://www.w3.org/Graphics/SVG/1.1/DTD/svg11.dtd">
<svg version="1.1" id="图层_1" xmlns:sketch="http://www.bohemiancoding.com/sketch/ns"
	 xmlns="http://www.w3.org/2000/svg" xmlns:xlink="http://www.w3.org/1999/xlink" x="0px" y="0px" width="18px" height="18px"
	 viewBox="0 0 18 18" enable-background="new 0 0 18 18" xml:space="preserve">
<title>drive-document</title>
<desc>Created with Sketch.</desc>
<g id="Page-1" sketch:type="MSPage">
	<g id="Core" transform="translate(-549.000000, -129.000000)" sketch:type="MSLayerGroup">
		<g id="drive-document" transform="translate(549.000000, 129.000000)" sketch:type="MSShapeGroup">
			<path id="Shape" fill="#CCCCCC" d="M16,0H2C0.9,0,0,0.9,0,2v14c0,1.1,0.9,2,2,2h14c1.1,0,2-0.9,2-2V2C18,0.9,17.1,0,16,0L16,0z
				 M14,6H4V4h10V6L14,6z M14,10H4V8h10V10L14,10z M11,14H4v-2h7V14L11,14z"/>
		</g>
	</g>
</g>
</svg>
