<?xml version="1.0" encoding="utf-8"?>
<!-- Generator: Adobe Illustrator 15.0.0, SVG Export Plug-In . SVG Version: 6.00 Build 0)  -->
<!DOCTYPE svg PUBLIC "-//W3C//DTD SVG 1.1//EN" "http://www.w3.org/Graphics/SVG/1.1/DTD/svg11.dtd">
<svg version="1.1" id="图层_1" xmlns:sketch="http://www.bohemiancoding.com/sketch/ns"
	 xmlns="http://www.w3.org/2000/svg" xmlns:xlink="http://www.w3.org/1999/xlink" x="0px" y="0px" width="22px" height="16px"
	 viewBox="0 0 22 16" enable-background="new 0 0 22 16" xml:space="preserve">
<title>person-add</title>
<desc>Created with Sketch.</desc>
<g id="Page-1" sketch:type="MSPage">
	<g id="Icons-Social" transform="translate(-42.000000, -129.000000)" sketch:type="MSLayerGroup">
		<g id="person-add" transform="translate(42.000000, 129.000000)" sketch:type="MSShapeGroup">
			<path id="Shape" fill="#FFFFFF" d="M14,8c2.2,0,4-1.8,4-4s-1.8-4-4-4s-4,1.8-4,4S11.8,8,14,8L14,8z M5,6V3H3v3H0v2h3v3h2V8h3V6H5
				L5,6z M14,10c-2.7,0-8,1.3-8,4v2h16v-2C22,11.3,16.7,10,14,10L14,10z"/>
		</g>
	</g>
</g>
</svg>
