<?xml version="1.0" encoding="utf-8"?>
<!-- Generator: Adobe Illustrator 15.0.0, SVG Export Plug-In . SVG Version: 6.00 Build 0)  -->
<!DOCTYPE svg PUBLIC "-//W3C//DTD SVG 1.1//EN" "http://www.w3.org/Graphics/SVG/1.1/DTD/svg11.dtd">
<svg version="1.1" id="图层_1" xmlns:sketch="http://www.bohemiancoding.com/sketch/ns"
	 xmlns="http://www.w3.org/2000/svg" xmlns:xlink="http://www.w3.org/1999/xlink" x="0px" y="0px" width="4px" height="16px"
	 viewBox="0 0 4 16" enable-background="new 0 0 4 16" xml:space="preserve">
<title>more-vert</title>
<desc>Created with Sketch.</desc>
<g id="Page-1" sketch:type="MSPage">
	<g id="Core" transform="translate(-178.000000, -340.000000)" sketch:type="MSLayerGroup">
		<g id="more-vert" transform="translate(178.000000, 340.000000)" sketch:type="MSShapeGroup">
			<path id="Shape" fill="#FFFFFF" d="M2,4c1.1,0,2-0.9,2-2S3.1,0,2,0C0.9,0,0,0.9,0,2S0.9,4,2,4L2,4z M2,6C0.9,6,0,6.9,0,8
				c0,1.1,0.9,2,2,2c1.1,0,2-0.9,2-2C4,6.9,3.1,6,2,6L2,6z M2,12c-1.1,0-2,0.9-2,2s0.9,2,2,2c1.1,0,2-0.9,2-2S3.1,12,2,12L2,12z"/>
		</g>
	</g>
</g>
</svg>
