<?xml version="1.0" encoding="utf-8"?>
<!-- Generator: Adobe Illustrator 15.0.0, SVG Export Plug-In . SVG Version: 6.00 Build 0)  -->
<!DOCTYPE svg PUBLIC "-//W3C//DTD SVG 1.1//EN" "http://www.w3.org/Graphics/SVG/1.1/DTD/svg11.dtd">
<svg version="1.1" id="图层_1" xmlns:sketch="http://www.bohemiancoding.com/sketch/ns"
	 xmlns="http://www.w3.org/2000/svg" xmlns:xlink="http://www.w3.org/1999/xlink" x="0px" y="0px" width="20px" height="18px"
	 viewBox="0 0 20 18" enable-background="new 0 0 20 18" xml:space="preserve">
<title>news</title>
<desc>Created with Sketch.</desc>
<g id="Page-1" sketch:type="MSPage">
	<g id="Icons-AV" transform="translate(-168.000000, -44.000000)" sketch:type="MSLayerGroup">
		<g id="news" transform="translate(168.000000, 44.000000)" sketch:type="MSShapeGroup">
			<path id="Shape" fill="#CCCCCC" d="M18.3,1.7L16.7,0L15,1.7L13.3,0l-1.7,1.7L10,0L8.3,1.7L6.7,0L5,1.7L3.3,0L1.7,1.7L0,0v16
				c0,1.1,0.9,2,2,2h16c1.1,0,2-0.9,2-2V0L18.3,1.7L18.3,1.7z M10,16H2V9h8V16L10,16z M18,16h-7v-1h7V16L18,16z M18,14h-7v-1h7V14
				L18,14z M18,12h-7v-1h7V12L18,12z M18,10h-7V9h7V10L18,10z M18,8H2V5h16V8L18,8z"/>
		</g>
	</g>
</g>
</svg>
