<?xml version="1.0" encoding="utf-8"?>
<!-- Generator: Adobe Illustrator 15.0.0, SVG Export Plug-In . SVG Version: 6.00 Build 0)  -->
<!DOCTYPE svg PUBLIC "-//W3C//DTD SVG 1.1//EN" "http://www.w3.org/Graphics/SVG/1.1/DTD/svg11.dtd">
<svg version="1.1" id="图层_1" xmlns:sketch="http://www.bohemiancoding.com/sketch/ns"
	 xmlns="http://www.w3.org/2000/svg" xmlns:xlink="http://www.w3.org/1999/xlink" x="0px" y="0px" width="18px" height="18px"
	 viewBox="0 0 18 18" enable-background="new 0 0 18 18" xml:space="preserve">
<title>search</title>
<desc>Created with Sketch.</desc>
<g id="Page-1" sketch:type="MSPage">
	<g id="Core" transform="translate(-339.000000, -381.000000)" sketch:type="MSLayerGroup">
		<g id="search" transform="translate(339.000000, 381.000000)" sketch:type="MSShapeGroup">
			<path id="Shape" fill="#CCCCCC" d="M12.5,11h-0.8l-0.3-0.3C12.4,9.6,13,8.1,13,6.5C13,2.9,10.1,0,6.5,0C2.9,0,0,2.9,0,6.5
				C0,10.1,2.9,13,6.5,13c1.6,0,3.1-0.6,4.2-1.6l0.3,0.3v0.8l5,5l1.5-1.5L12.5,11L12.5,11z M6.5,11C4,11,2,9,2,6.5S4,2,6.5,2
				S11,4,11,6.5S9,11,6.5,11L6.5,11z"/>
		</g>
	</g>
</g>
</svg>
