<?xml version="1.0" encoding="utf-8"?>
<!-- Generator: Adobe Illustrator 15.0.0, SVG Export Plug-In . SVG Version: 6.00 Build 0)  -->
<!DOCTYPE svg PUBLIC "-//W3C//DTD SVG 1.1//EN" "http://www.w3.org/Graphics/SVG/1.1/DTD/svg11.dtd">
<svg version="1.1" id="图层_1" xmlns:sketch="http://www.bohemiancoding.com/sketch/ns"
	 xmlns="http://www.w3.org/2000/svg" xmlns:xlink="http://www.w3.org/1999/xlink" x="0px" y="0px" width="20px" height="14px"
	 viewBox="0 0 20 14" enable-background="new 0 0 20 14" xml:space="preserve">
<title>switch-video</title>
<desc>Created with Sketch.</desc>
<g id="Page-1" sketch:type="MSPage">
	<g id="Icons-Images" transform="translate(-42.000000, -130.000000)" sketch:type="MSLayerGroup">
		<g id="switch-video" transform="translate(42.000000, 130.000000)" sketch:type="MSShapeGroup">
			<path id="Shape" fill="#CCCCCC" d="M16,4.5V1c0-0.6-0.4-1-1-1H1C0.4,0,0,0.4,0,1v12c0,0.6,0.4,1,1,1h14c0.6,0,1-0.4,1-1V9.5l4,4
				v-13L16,4.5L16,4.5z M4.8,6c0,1.5,1.2,2.7,2.7,2.7s2.7-1.2,2.7-2.7H8.5L11,3.5L13.5,6H12c0,2.5-2,4.5-4.5,4.5S3,8.5,3,6H4.8
				L4.8,6z"/>
		</g>
	</g>
</g>
</svg>
